<mxfile host="app.diagrams.net" agent="Mozilla/5.0 (Macintosh; Intel Mac OS X 10_15_7) AppleWebKit/537.36 (KHTML, like Gecko) Chrome/131.0.0.0 Safari/537.36" version="24.9.1">
  <diagram name="Page-1" id="10a91c8b-09ff-31b1-d368-03940ed4cc9e">
    <mxGraphModel dx="969" dy="1591" grid="1" gridSize="10" guides="1" tooltips="1" connect="1" arrows="1" fold="1" page="1" pageScale="1" pageWidth="1100" pageHeight="850" background="none" math="0" shadow="0">
      <root>
        <mxCell id="0" />
        <mxCell id="1" parent="0" />
        <mxCell id="4B2M-noWRDSl6KQuVCh--43" style="rounded=0;orthogonalLoop=1;jettySize=auto;html=1;exitX=0.5;exitY=1;exitDx=0;exitDy=0;endArrow=none;endFill=0;" edge="1" parent="1" source="62893188c0fa7362-1" target="4B2M-noWRDSl6KQuVCh--34">
          <mxGeometry relative="1" as="geometry" />
        </mxCell>
        <mxCell id="4B2M-noWRDSl6KQuVCh--54" style="rounded=0;orthogonalLoop=1;jettySize=auto;html=1;exitX=0.5;exitY=1;exitDx=0;exitDy=0;entryX=0.5;entryY=0;entryDx=0;entryDy=0;endArrow=none;endFill=0;" edge="1" parent="1" source="62893188c0fa7362-1" target="4B2M-noWRDSl6KQuVCh--44">
          <mxGeometry relative="1" as="geometry" />
        </mxCell>
        <mxCell id="4B2M-noWRDSl6KQuVCh--55" style="rounded=0;orthogonalLoop=1;jettySize=auto;html=1;exitX=0.5;exitY=1;exitDx=0;exitDy=0;entryX=0.5;entryY=0;entryDx=0;entryDy=0;endArrow=none;endFill=0;" edge="1" parent="1" source="62893188c0fa7362-1" target="4B2M-noWRDSl6KQuVCh--51">
          <mxGeometry relative="1" as="geometry" />
        </mxCell>
        <mxCell id="62893188c0fa7362-1" value="ECHARTS" style="whiteSpace=wrap;html=1;rounded=1;shadow=1;labelBackgroundColor=none;strokeWidth=1;fontFamily=Verdana;fontSize=12;align=center;" parent="1" vertex="1">
          <mxGeometry x="1180" y="-60" width="120" height="60" as="geometry" />
        </mxCell>
        <mxCell id="62893188c0fa7362-2" value="图表容器" style="whiteSpace=wrap;html=1;rounded=1;shadow=1;labelBackgroundColor=none;strokeWidth=1;fontFamily=Verdana;fontSize=12;align=center;" parent="1" vertex="1">
          <mxGeometry x="380" y="170" width="120" height="60" as="geometry" />
        </mxCell>
        <mxCell id="P412KL33B7bhKjnjoUlW-9" style="rounded=0;orthogonalLoop=1;jettySize=auto;html=1;exitX=0.5;exitY=1;exitDx=0;exitDy=0;entryX=0.5;entryY=0;entryDx=0;entryDy=0;endArrow=none;endFill=0;" parent="1" source="62893188c0fa7362-3" target="P412KL33B7bhKjnjoUlW-8" edge="1">
          <mxGeometry relative="1" as="geometry" />
        </mxCell>
        <mxCell id="P412KL33B7bhKjnjoUlW-11" style="rounded=0;orthogonalLoop=1;jettySize=auto;html=1;exitX=0.5;exitY=1;exitDx=0;exitDy=0;entryX=0.5;entryY=0;entryDx=0;entryDy=0;endArrow=none;endFill=0;" parent="1" source="62893188c0fa7362-3" target="P412KL33B7bhKjnjoUlW-10" edge="1">
          <mxGeometry relative="1" as="geometry" />
        </mxCell>
        <mxCell id="62893188c0fa7362-3" value="&lt;span&gt;样式&lt;/span&gt;" style="whiteSpace=wrap;html=1;rounded=1;shadow=1;labelBackgroundColor=none;strokeWidth=1;fontFamily=Verdana;fontSize=12;align=center;" parent="1" vertex="1">
          <mxGeometry x="810" y="160" width="120" height="60" as="geometry" />
        </mxCell>
        <mxCell id="62893188c0fa7362-4" value="" style="rounded=0;html=1;labelBackgroundColor=none;startArrow=none;startFill=0;startSize=5;endArrow=none;endFill=0;endSize=5;jettySize=auto;orthogonalLoop=1;strokeWidth=1;fontFamily=Verdana;fontSize=12;entryX=0.5;entryY=0;entryDx=0;entryDy=0;exitX=0.5;exitY=1;exitDx=0;exitDy=0;" parent="1" source="62893188c0fa7362-1" target="62893188c0fa7362-3" edge="1">
          <mxGeometry x="-0.3002" y="13" relative="1" as="geometry">
            <mxPoint as="offset" />
          </mxGeometry>
        </mxCell>
        <mxCell id="62893188c0fa7362-5" value="" style="rounded=0;html=1;labelBackgroundColor=none;startArrow=none;startFill=0;startSize=5;endArrow=none;endFill=0;endSize=5;jettySize=auto;orthogonalLoop=1;strokeWidth=1;fontFamily=Verdana;fontSize=12;exitX=0.5;exitY=1;exitDx=0;exitDy=0;" parent="1" source="62893188c0fa7362-1" target="62893188c0fa7362-2" edge="1">
          <mxGeometry x="-0.359" y="-11" relative="1" as="geometry">
            <mxPoint as="offset" />
          </mxGeometry>
        </mxCell>
        <mxCell id="62893188c0fa7362-8" value="&lt;span&gt;优先图表配置大小，其次默认容器大小&lt;/span&gt;" style="whiteSpace=wrap;html=1;rounded=1;shadow=1;labelBackgroundColor=none;strokeWidth=1;fontFamily=Verdana;fontSize=12;align=center;" parent="1" vertex="1">
          <mxGeometry x="300" y="280" width="120" height="60" as="geometry" />
        </mxCell>
        <mxCell id="62893188c0fa7362-10" value="&lt;span&gt;颜色主题them&lt;/span&gt;&lt;div&gt;&lt;span&gt;内置init,非内置先fetch再registerTheme,再init&lt;/span&gt;&lt;/div&gt;" style="whiteSpace=wrap;html=1;rounded=1;shadow=1;labelBackgroundColor=none;strokeWidth=2;fontFamily=Verdana;fontSize=12;align=center;" parent="1" vertex="1">
          <mxGeometry x="530" y="280" width="120" height="80" as="geometry" />
        </mxCell>
        <mxCell id="62893188c0fa7362-11" value="&lt;span&gt;调色盘，设置在option对象中或option.series数组中的对象中，程序自动拾取&lt;/span&gt;" style="whiteSpace=wrap;html=1;rounded=1;shadow=1;labelBackgroundColor=none;strokeWidth=2;fontFamily=Verdana;fontSize=12;align=center;" parent="1" vertex="1">
          <mxGeometry x="670" y="280" width="120" height="80" as="geometry" />
        </mxCell>
        <mxCell id="P412KL33B7bhKjnjoUlW-7" value="" style="rounded=0;orthogonalLoop=1;jettySize=auto;html=1;endArrow=none;endFill=0;" parent="1" source="62893188c0fa7362-12" target="P412KL33B7bhKjnjoUlW-6" edge="1">
          <mxGeometry relative="1" as="geometry" />
        </mxCell>
        <mxCell id="62893188c0fa7362-12" value="图表配置大小&lt;br&gt;echarts.init(xx)&lt;div&gt;myChart.resize(xx)&lt;/div&gt;" style="whiteSpace=wrap;html=1;rounded=1;shadow=1;labelBackgroundColor=none;strokeWidth=1;fontFamily=Verdana;fontSize=12;align=center;" parent="1" vertex="1">
          <mxGeometry x="200" y="395" width="120" height="60" as="geometry" />
        </mxCell>
        <mxCell id="62893188c0fa7362-13" value="容器大小style&lt;br&gt;width,height" style="whiteSpace=wrap;html=1;rounded=1;shadow=1;labelBackgroundColor=none;strokeWidth=1;fontFamily=Verdana;fontSize=12;align=center;" parent="1" vertex="1">
          <mxGeometry x="390" y="390" width="120" height="60" as="geometry" />
        </mxCell>
        <mxCell id="62893188c0fa7362-14" value="" style="rounded=0;html=1;labelBackgroundColor=none;startArrow=none;startFill=0;startSize=5;endArrow=none;endFill=0;endSize=5;jettySize=auto;orthogonalLoop=1;strokeWidth=1;fontFamily=Verdana;fontSize=12" parent="1" source="62893188c0fa7362-2" target="62893188c0fa7362-8" edge="1">
          <mxGeometry x="-0.208" y="-14" relative="1" as="geometry">
            <mxPoint as="offset" />
          </mxGeometry>
        </mxCell>
        <mxCell id="62893188c0fa7362-16" value="" style="rounded=0;html=1;labelBackgroundColor=none;startArrow=none;startFill=0;startSize=5;endArrow=none;endFill=0;endSize=5;jettySize=auto;orthogonalLoop=1;strokeWidth=1;fontFamily=Verdana;fontSize=12;exitX=0.5;exitY=1;exitDx=0;exitDy=0;" parent="1" source="62893188c0fa7362-3" target="62893188c0fa7362-10" edge="1">
          <mxGeometry x="-0.2614" y="-13" relative="1" as="geometry">
            <mxPoint as="offset" />
          </mxGeometry>
        </mxCell>
        <mxCell id="62893188c0fa7362-17" value="" style="rounded=0;html=1;labelBackgroundColor=none;startArrow=none;startFill=0;startSize=5;endArrow=none;endFill=0;endSize=5;jettySize=auto;orthogonalLoop=1;strokeWidth=1;fontFamily=Verdana;fontSize=12;exitX=0.5;exitY=1;exitDx=0;exitDy=0;" parent="1" source="62893188c0fa7362-3" target="62893188c0fa7362-11" edge="1">
          <mxGeometry x="-0.1294" y="17" relative="1" as="geometry">
            <mxPoint as="offset" />
          </mxGeometry>
        </mxCell>
        <mxCell id="62893188c0fa7362-18" value="" style="rounded=0;html=1;labelBackgroundColor=none;startArrow=none;startFill=0;startSize=5;endArrow=none;endFill=0;endSize=5;jettySize=auto;orthogonalLoop=1;strokeWidth=1;fontFamily=Verdana;fontSize=12" parent="1" source="62893188c0fa7362-8" target="62893188c0fa7362-12" edge="1">
          <mxGeometry x="-0.2168" y="-14" relative="1" as="geometry">
            <mxPoint as="offset" />
          </mxGeometry>
        </mxCell>
        <mxCell id="62893188c0fa7362-19" value="" style="rounded=0;html=1;labelBackgroundColor=none;startArrow=none;startFill=0;startSize=5;endArrow=none;endFill=0;endSize=5;jettySize=auto;orthogonalLoop=1;strokeWidth=1;fontFamily=Verdana;fontSize=12" parent="1" source="62893188c0fa7362-8" target="62893188c0fa7362-13" edge="1">
          <mxGeometry x="-0.2842" y="12" relative="1" as="geometry">
            <mxPoint as="offset" />
          </mxGeometry>
        </mxCell>
        <mxCell id="62893188c0fa7362-22" value="固定大小" style="whiteSpace=wrap;html=1;rounded=1;shadow=1;labelBackgroundColor=none;strokeWidth=2;fontFamily=Verdana;fontSize=12;align=center;" parent="1" vertex="1">
          <mxGeometry x="300" y="490" width="120" height="60" as="geometry" />
        </mxCell>
        <mxCell id="P412KL33B7bhKjnjoUlW-3" value="" style="rounded=0;orthogonalLoop=1;jettySize=auto;html=1;endArrow=none;endFill=0;" parent="1" source="62893188c0fa7362-23" target="P412KL33B7bhKjnjoUlW-1" edge="1">
          <mxGeometry relative="1" as="geometry" />
        </mxCell>
        <mxCell id="62893188c0fa7362-23" value="响应式变化" style="whiteSpace=wrap;html=1;rounded=1;shadow=1;labelBackgroundColor=none;strokeWidth=2;fontFamily=Verdana;fontSize=12;align=center;" parent="1" vertex="1">
          <mxGeometry x="470" y="490" width="120" height="60" as="geometry" />
        </mxCell>
        <mxCell id="62893188c0fa7362-26" value="" style="rounded=0;html=1;labelBackgroundColor=none;startArrow=none;startFill=0;startSize=5;endArrow=none;endFill=0;endSize=5;jettySize=auto;orthogonalLoop=1;strokeWidth=1;fontFamily=Verdana;fontSize=12" parent="1" source="62893188c0fa7362-13" target="62893188c0fa7362-22" edge="1">
          <mxGeometry x="0.0033" y="-12" relative="1" as="geometry">
            <mxPoint as="offset" />
          </mxGeometry>
        </mxCell>
        <mxCell id="62893188c0fa7362-27" value="" style="rounded=0;html=1;labelBackgroundColor=none;startArrow=none;startFill=0;startSize=5;endArrow=none;endFill=0;endSize=5;jettySize=auto;orthogonalLoop=1;strokeWidth=1;fontFamily=Verdana;fontSize=12" parent="1" source="62893188c0fa7362-13" target="62893188c0fa7362-23" edge="1">
          <mxGeometry x="0.1373" y="16" relative="1" as="geometry">
            <mxPoint as="offset" />
          </mxGeometry>
        </mxCell>
        <mxCell id="P412KL33B7bhKjnjoUlW-1" value="页面变化window.onResize" style="whiteSpace=wrap;html=1;fontFamily=Verdana;rounded=1;shadow=1;labelBackgroundColor=none;strokeWidth=2;" parent="1" vertex="1">
          <mxGeometry x="370" y="600" width="120" height="60" as="geometry" />
        </mxCell>
        <mxCell id="P412KL33B7bhKjnjoUlW-5" style="rounded=0;orthogonalLoop=1;jettySize=auto;html=1;exitX=0.5;exitY=0;exitDx=0;exitDy=0;entryX=0.5;entryY=1;entryDx=0;entryDy=0;endArrow=none;endFill=0;" parent="1" source="P412KL33B7bhKjnjoUlW-4" target="62893188c0fa7362-23" edge="1">
          <mxGeometry relative="1" as="geometry" />
        </mxCell>
        <mxCell id="P412KL33B7bhKjnjoUlW-4" value="&lt;font&gt;页面不变，容器变&lt;span style=&quot;color: rgb(100, 116, 139); font-family: &amp;quot;Open Sans&amp;quot;, &amp;quot;PingFang SC&amp;quot;, Helvetica, Arial, sans-serif; text-align: start; background-color: rgb(219, 234, 254);&quot;&gt;浏览器的&amp;nbsp;&lt;/span&gt;&lt;a style=&quot;box-sizing: border-box; border-width: 0px; border-style: solid; border-color: rgba(229,231,235,var(--tw-border-opacity)); border-image: initial; --tw-border-opacity: 1; --tw-shadow: 0 0 transparent; --tw-ring-inset: var(--tw-empty,/*!*/ /*!*/); --tw-ring-offset-width: 0px; --tw-ring-offset-color: #fff; --tw-ring-color: rgba(59,130,246,0.5); --tw-ring-offset-shadow: 0 0 transparent; --tw-ring-shadow: 0 0 transparent; background-color: rgb(219, 234, 254); color: rgb(51, 122, 183); text-decoration: inherit; margin-bottom: 0px; font-family: &amp;quot;Open Sans&amp;quot;, &amp;quot;PingFang SC&amp;quot;, Helvetica, Arial, sans-serif; text-align: start;&quot; href=&quot;https://developer.mozilla.org/zh-CN/docs/Web/API/ResizeObserver&quot;&gt;&lt;code style=&quot;box-sizing: border-box; border-width: 0px; border-style: solid; border-color: rgba(229,231,235,var(--tw-border-opacity)); border-image: initial; --tw-border-opacity: 1; --tw-shadow: 0 0 transparent; --tw-ring-inset: var(--tw-empty,/*!*/ /*!*/); --tw-ring-offset-width: 0px; --tw-ring-offset-color: #fff; --tw-ring-color: rgba(59,130,246,0.5); --tw-ring-offset-shadow: 0 0 transparent; --tw-ring-shadow: 0 0 transparent; font-family: ui-monospace, SFMono-Regular, Menlo, Monaco, Consolas, &amp;quot;Liberation Mono&amp;quot;, &amp;quot;Courier New&amp;quot;, monospace; padding: 2px 4px; color: currentcolor; background-color: rgba(191,219,254,var(--tw-bg-opacity)); border-radius: 4px; --tw-bg-opacity: 1; box-shadow: var(--tw-ring-offset-shadow,0 0 transparent),var(--tw-ring-shadow,0 0 transparent),var(--tw-shadow); margin-top: 0px; margin-bottom: 0px;&quot;&gt;ResizeObserver&lt;/code&gt;&lt;/a&gt;&lt;span style=&quot;color: rgb(100, 116, 139); font-family: &amp;quot;Open Sans&amp;quot;, &amp;quot;PingFang SC&amp;quot;, Helvetica, Arial, sans-serif; text-align: start; background-color: rgb(219, 234, 254);&quot;&gt;&amp;nbsp;API&lt;/span&gt;&lt;/font&gt;" style="whiteSpace=wrap;html=1;fontFamily=Verdana;rounded=1;shadow=1;labelBackgroundColor=none;strokeWidth=2;" parent="1" vertex="1">
          <mxGeometry x="520" y="600" width="120" height="60" as="geometry" />
        </mxCell>
        <mxCell id="P412KL33B7bhKjnjoUlW-6" value="&lt;font&gt;销毁，一般容器销毁时&lt;span style=&quot;color: rgb(100, 116, 139); font-family: &amp;quot;Open Sans&amp;quot;, &amp;quot;PingFang SC&amp;quot;, Helvetica, Arial, sans-serif; text-align: start; background-color: rgb(255, 255, 255);&quot;&gt;&amp;nbsp;&lt;/span&gt;&lt;/font&gt;&lt;div&gt;&lt;font&gt;&lt;a style=&quot;box-sizing: border-box; border-width: 0px; border-style: solid; border-color: rgba(229,231,235,var(--tw-border-opacity)); border-image: initial; --tw-border-opacity: 1; --tw-shadow: 0 0 transparent; --tw-ring-inset: var(--tw-empty,/*!*/ /*!*/); --tw-ring-offset-width: 0px; --tw-ring-offset-color: #fff; --tw-ring-color: rgba(59,130,246,0.5); --tw-ring-offset-shadow: 0 0 transparent; --tw-ring-shadow: 0 0 transparent; background-color: rgb(255, 255, 255); color: rgb(51, 122, 183); text-decoration: inherit; font-family: &amp;quot;Open Sans&amp;quot;, &amp;quot;PingFang SC&amp;quot;, Helvetica, Arial, sans-serif; text-align: start;&quot; href=&quot;https://echarts.apache.org/api.html#echartsInstance.dispose&quot;&gt;&lt;code style=&quot;box-sizing: border-box; border-width: 0px; border-style: solid; border-color: rgba(229,231,235,var(--tw-border-opacity)); border-image: initial; --tw-border-opacity: 1; --tw-shadow: 0 0 transparent; --tw-ring-inset: var(--tw-empty,/*!*/ /*!*/); --tw-ring-offset-width: 0px; --tw-ring-offset-color: #fff; --tw-ring-color: rgba(59,130,246,0.5); --tw-ring-offset-shadow: 0 0 transparent; --tw-ring-shadow: 0 0 transparent; font-family: ui-monospace, SFMono-Regular, Menlo, Monaco, Consolas, &amp;quot;Liberation Mono&amp;quot;, &amp;quot;Courier New&amp;quot;, monospace; padding: 2px 4px; color: rgb(199, 37, 78); background-color: rgb(249, 242, 244); border-radius: 4px;&quot;&gt;echartsInstance.dispose&lt;/code&gt;&lt;/a&gt;&lt;/font&gt;&lt;/div&gt;" style="whiteSpace=wrap;html=1;fontFamily=Verdana;rounded=1;shadow=1;labelBackgroundColor=none;strokeWidth=1;" parent="1" vertex="1">
          <mxGeometry x="130" y="490" width="120" height="60" as="geometry" />
        </mxCell>
        <mxCell id="P412KL33B7bhKjnjoUlW-8" value="&lt;span&gt;直接的样式设置，itemStyle,lineStyle,&lt;/span&gt;&lt;div&gt;&lt;span&gt;areaStyle,label等，默认高亮系统生成，也支持emphasis自定义&lt;/span&gt;&lt;/div&gt;" style="whiteSpace=wrap;html=1;rounded=1;shadow=1;labelBackgroundColor=none;strokeWidth=2;fontFamily=Verdana;fontSize=12;align=center;" parent="1" vertex="1">
          <mxGeometry x="810" y="280" width="120" height="80" as="geometry" />
        </mxCell>
        <mxCell id="P412KL33B7bhKjnjoUlW-10" value="visualMap根据数值范围映射颜色" style="whiteSpace=wrap;html=1;rounded=1;shadow=1;labelBackgroundColor=none;strokeWidth=2;fontFamily=Verdana;fontSize=12;align=center;" parent="1" vertex="1">
          <mxGeometry x="950" y="280" width="120" height="80" as="geometry" />
        </mxCell>
        <mxCell id="P412KL33B7bhKjnjoUlW-13" style="rounded=0;orthogonalLoop=1;jettySize=auto;html=1;exitX=0.5;exitY=0;exitDx=0;exitDy=0;entryX=0.5;entryY=1;entryDx=0;entryDy=0;endArrow=none;endFill=0;" parent="1" source="P412KL33B7bhKjnjoUlW-12" target="62893188c0fa7362-1" edge="1">
          <mxGeometry relative="1" as="geometry">
            <mxPoint x="580" y="140" as="targetPoint" />
          </mxGeometry>
        </mxCell>
        <mxCell id="P412KL33B7bhKjnjoUlW-16" value="" style="rounded=0;orthogonalLoop=1;jettySize=auto;html=1;endArrow=none;endFill=0;exitX=0.5;exitY=1;exitDx=0;exitDy=0;" parent="1" source="P412KL33B7bhKjnjoUlW-12" target="P412KL33B7bhKjnjoUlW-14" edge="1">
          <mxGeometry relative="1" as="geometry" />
        </mxCell>
        <mxCell id="P412KL33B7bhKjnjoUlW-18" style="rounded=0;orthogonalLoop=1;jettySize=auto;html=1;exitX=0.5;exitY=1;exitDx=0;exitDy=0;entryX=0.5;entryY=0;entryDx=0;entryDy=0;endArrow=none;endFill=0;" parent="1" source="P412KL33B7bhKjnjoUlW-12" target="P412KL33B7bhKjnjoUlW-17" edge="1">
          <mxGeometry relative="1" as="geometry" />
        </mxCell>
        <mxCell id="4B2M-noWRDSl6KQuVCh--7" style="rounded=0;orthogonalLoop=1;jettySize=auto;html=1;exitX=0.5;exitY=1;exitDx=0;exitDy=0;entryX=0.5;entryY=0;entryDx=0;entryDy=0;endArrow=none;endFill=0;" edge="1" parent="1" source="P412KL33B7bhKjnjoUlW-12" target="4B2M-noWRDSl6KQuVCh--6">
          <mxGeometry relative="1" as="geometry" />
        </mxCell>
        <mxCell id="4B2M-noWRDSl6KQuVCh--20" style="rounded=0;orthogonalLoop=1;jettySize=auto;html=1;exitX=0.5;exitY=1;exitDx=0;exitDy=0;endArrow=none;endFill=0;entryX=0.5;entryY=0;entryDx=0;entryDy=0;" edge="1" parent="1" source="P412KL33B7bhKjnjoUlW-12" target="4B2M-noWRDSl6KQuVCh--19">
          <mxGeometry relative="1" as="geometry" />
        </mxCell>
        <mxCell id="P412KL33B7bhKjnjoUlW-12" value="&lt;span&gt;数据集&lt;/span&gt;" style="whiteSpace=wrap;html=1;rounded=1;shadow=1;labelBackgroundColor=none;strokeWidth=1;fontFamily=Verdana;fontSize=12;align=center;" parent="1" vertex="1">
          <mxGeometry x="1320" y="150" width="120" height="60" as="geometry" />
        </mxCell>
        <mxCell id="4B2M-noWRDSl6KQuVCh--2" value="" style="rounded=0;orthogonalLoop=1;jettySize=auto;html=1;endArrow=none;endFill=0;" edge="1" parent="1" source="P412KL33B7bhKjnjoUlW-14" target="4B2M-noWRDSl6KQuVCh--1">
          <mxGeometry relative="1" as="geometry" />
        </mxCell>
        <mxCell id="P412KL33B7bhKjnjoUlW-14" value="维度" style="whiteSpace=wrap;html=1;fontFamily=Verdana;rounded=1;shadow=1;labelBackgroundColor=none;strokeWidth=1;" parent="1" vertex="1">
          <mxGeometry x="1120" y="300" width="120" height="60" as="geometry" />
        </mxCell>
        <mxCell id="4B2M-noWRDSl6KQuVCh--5" style="rounded=0;orthogonalLoop=1;jettySize=auto;html=1;exitX=0.5;exitY=1;exitDx=0;exitDy=0;endArrow=none;endFill=0;" edge="1" parent="1" source="P412KL33B7bhKjnjoUlW-17" target="4B2M-noWRDSl6KQuVCh--4">
          <mxGeometry relative="1" as="geometry" />
        </mxCell>
        <mxCell id="P412KL33B7bhKjnjoUlW-17" value="数据项" style="whiteSpace=wrap;html=1;fontFamily=Verdana;rounded=1;shadow=1;labelBackgroundColor=none;strokeWidth=1;" parent="1" vertex="1">
          <mxGeometry x="1280" y="300" width="120" height="60" as="geometry" />
        </mxCell>
        <mxCell id="4B2M-noWRDSl6KQuVCh--1" value="1.dateset.sourceHeader&lt;div&gt;2.dateset.dimensions&lt;/div&gt;&lt;div&gt;3.series.dimensions&lt;/div&gt;" style="whiteSpace=wrap;html=1;fontFamily=Verdana;rounded=1;shadow=1;labelBackgroundColor=none;strokeWidth=1;" vertex="1" parent="1">
          <mxGeometry x="1081" y="440" width="179" height="60" as="geometry" />
        </mxCell>
        <mxCell id="4B2M-noWRDSl6KQuVCh--4" value="dataset.source" style="whiteSpace=wrap;html=1;fontFamily=Verdana;rounded=1;shadow=1;labelBackgroundColor=none;strokeWidth=1;" vertex="1" parent="1">
          <mxGeometry x="1270" y="440" width="100" height="60" as="geometry" />
        </mxCell>
        <mxCell id="4B2M-noWRDSl6KQuVCh--10" style="rounded=0;orthogonalLoop=1;jettySize=auto;html=1;exitX=0.5;exitY=1;exitDx=0;exitDy=0;entryX=0.5;entryY=0;entryDx=0;entryDy=0;endArrow=none;endFill=0;" edge="1" parent="1" source="4B2M-noWRDSl6KQuVCh--6" target="4B2M-noWRDSl6KQuVCh--9">
          <mxGeometry relative="1" as="geometry" />
        </mxCell>
        <mxCell id="4B2M-noWRDSl6KQuVCh--12" value="" style="rounded=0;orthogonalLoop=1;jettySize=auto;html=1;endArrow=none;endFill=0;" edge="1" parent="1" source="4B2M-noWRDSl6KQuVCh--6" target="4B2M-noWRDSl6KQuVCh--11">
          <mxGeometry relative="1" as="geometry" />
        </mxCell>
        <mxCell id="4B2M-noWRDSl6KQuVCh--6" value="映射" style="whiteSpace=wrap;html=1;fontFamily=Verdana;rounded=1;shadow=1;labelBackgroundColor=none;strokeWidth=1;" vertex="1" parent="1">
          <mxGeometry x="1460" y="300" width="120" height="60" as="geometry" />
        </mxCell>
        <mxCell id="4B2M-noWRDSl6KQuVCh--18" style="rounded=0;orthogonalLoop=1;jettySize=auto;html=1;exitX=0.5;exitY=1;exitDx=0;exitDy=0;endArrow=none;endFill=0;" edge="1" parent="1" source="4B2M-noWRDSl6KQuVCh--9" target="4B2M-noWRDSl6KQuVCh--17">
          <mxGeometry relative="1" as="geometry" />
        </mxCell>
        <mxCell id="4B2M-noWRDSl6KQuVCh--9" value="series.encode设置x: y: tooltip: 等" style="whiteSpace=wrap;html=1;fontFamily=Verdana;rounded=1;shadow=1;labelBackgroundColor=none;strokeWidth=1;" vertex="1" parent="1">
          <mxGeometry x="1560" y="440" width="100" height="60" as="geometry" />
        </mxCell>
        <mxCell id="4B2M-noWRDSl6KQuVCh--11" value="不指定默认行为，以列为维度，第一个维度为X轴" style="whiteSpace=wrap;html=1;fontFamily=Verdana;rounded=1;shadow=1;labelBackgroundColor=none;strokeWidth=1;" vertex="1" parent="1">
          <mxGeometry x="1390" y="440" width="120" height="60" as="geometry" />
        </mxCell>
        <UserObject label="dataset#%E5%87%A0%E4%B8%AA%E5%B8%B8%E8%A7%81%E7%9A%84-series.encode-%E8%AE%BE%E7%BD%AE%E6%96%B9%E5%BC%8F%E4%B8%BE%E4%BE%8B" link="https://echarts.apache.org/handbook/zh/concepts/dataset#%E5%87%A0%E4%B8%AA%E5%B8%B8%E8%A7%81%E7%9A%84-series.encode-%E8%AE%BE%E7%BD%AE%E6%96%B9%E5%BC%8F%E4%B8%BE%E4%BE%8B" id="4B2M-noWRDSl6KQuVCh--17">
          <mxCell style="fontColor=#0000EE;fontStyle=4;rounded=1;overflow=hidden;spacing=10;" vertex="1" parent="1">
            <mxGeometry x="1460" y="550" width="250" height="40" as="geometry" />
          </mxCell>
        </UserObject>
        <mxCell id="4B2M-noWRDSl6KQuVCh--23" style="rounded=0;orthogonalLoop=1;jettySize=auto;html=1;exitX=0.5;exitY=1;exitDx=0;exitDy=0;endArrow=none;endFill=0;" edge="1" parent="1" source="4B2M-noWRDSl6KQuVCh--19" target="4B2M-noWRDSl6KQuVCh--22">
          <mxGeometry relative="1" as="geometry" />
        </mxCell>
        <mxCell id="4B2M-noWRDSl6KQuVCh--19" value="转换" style="whiteSpace=wrap;html=1;fontFamily=Verdana;rounded=1;shadow=1;labelBackgroundColor=none;strokeWidth=1;" vertex="1" parent="1">
          <mxGeometry x="1620" y="300" width="120" height="60" as="geometry" />
        </mxCell>
        <mxCell id="4B2M-noWRDSl6KQuVCh--25" value="" style="rounded=0;orthogonalLoop=1;jettySize=auto;html=1;endArrow=none;endFill=0;" edge="1" parent="1" source="4B2M-noWRDSl6KQuVCh--22" target="4B2M-noWRDSl6KQuVCh--24">
          <mxGeometry relative="1" as="geometry" />
        </mxCell>
        <mxCell id="4B2M-noWRDSl6KQuVCh--22" value="dataset.transform&lt;br&gt;多个transfrom生成多个数据集&lt;div&gt;多个transfrom同一数据集链式调用&lt;/div&gt;&lt;div&gt;单个transfrom生成多个数据集fromDatasetIndex, fromTransfromResult&lt;/div&gt;" style="whiteSpace=wrap;html=1;fontFamily=Verdana;rounded=1;shadow=1;labelBackgroundColor=none;strokeWidth=1;" vertex="1" parent="1">
          <mxGeometry x="1680" y="440" width="430" height="60" as="geometry" />
        </mxCell>
        <mxCell id="4B2M-noWRDSl6KQuVCh--27" value="" style="rounded=0;orthogonalLoop=1;jettySize=auto;html=1;exitX=0.5;exitY=1;exitDx=0;exitDy=0;entryX=0.5;entryY=0;entryDx=0;entryDy=0;endArrow=none;endFill=0;" edge="1" parent="1" source="4B2M-noWRDSl6KQuVCh--24" target="4B2M-noWRDSl6KQuVCh--26">
          <mxGeometry relative="1" as="geometry" />
        </mxCell>
        <mxCell id="4B2M-noWRDSl6KQuVCh--33" style="rounded=0;orthogonalLoop=1;jettySize=auto;html=1;exitX=0.5;exitY=1;exitDx=0;exitDy=0;endArrow=none;endFill=0;entryX=0.5;entryY=0;entryDx=0;entryDy=0;" edge="1" parent="1" source="4B2M-noWRDSl6KQuVCh--24" target="4B2M-noWRDSl6KQuVCh--32">
          <mxGeometry relative="1" as="geometry" />
        </mxCell>
        <mxCell id="4B2M-noWRDSl6KQuVCh--24" value="转换器" style="whiteSpace=wrap;html=1;fontFamily=Verdana;rounded=1;shadow=1;labelBackgroundColor=none;strokeWidth=1;" vertex="1" parent="1">
          <mxGeometry x="1835" y="540" width="120" height="60" as="geometry" />
        </mxCell>
        <mxCell id="4B2M-noWRDSl6KQuVCh--26" value="filter" style="whiteSpace=wrap;html=1;fontFamily=Verdana;rounded=1;shadow=1;labelBackgroundColor=none;strokeWidth=1;" vertex="1" parent="1">
          <mxGeometry x="1650" y="680" width="120" height="60" as="geometry" />
        </mxCell>
        <mxCell id="4B2M-noWRDSl6KQuVCh--31" style="rounded=0;orthogonalLoop=1;jettySize=auto;html=1;exitX=0.5;exitY=0;exitDx=0;exitDy=0;endArrow=none;endFill=0;" edge="1" parent="1" source="4B2M-noWRDSl6KQuVCh--28">
          <mxGeometry relative="1" as="geometry">
            <mxPoint x="1900" y="600" as="targetPoint" />
          </mxGeometry>
        </mxCell>
        <mxCell id="4B2M-noWRDSl6KQuVCh--28" value="boxplot" style="whiteSpace=wrap;html=1;fontFamily=Verdana;rounded=1;shadow=1;labelBackgroundColor=none;strokeWidth=1;" vertex="1" parent="1">
          <mxGeometry x="1930" y="680" width="120" height="60" as="geometry" />
        </mxCell>
        <mxCell id="4B2M-noWRDSl6KQuVCh--29" value="sort" style="whiteSpace=wrap;html=1;fontFamily=Verdana;rounded=1;shadow=1;labelBackgroundColor=none;strokeWidth=1;" vertex="1" parent="1">
          <mxGeometry x="1790" y="680" width="120" height="60" as="geometry" />
        </mxCell>
        <mxCell id="4B2M-noWRDSl6KQuVCh--30" style="rounded=0;orthogonalLoop=1;jettySize=auto;html=1;exitX=0.5;exitY=1;exitDx=0;exitDy=0;entryX=0.5;entryY=0;entryDx=0;entryDy=0;endArrow=none;endFill=0;" edge="1" parent="1" source="4B2M-noWRDSl6KQuVCh--24" target="4B2M-noWRDSl6KQuVCh--29">
          <mxGeometry relative="1" as="geometry" />
        </mxCell>
        <mxCell id="4B2M-noWRDSl6KQuVCh--32" value="外部转换器&lt;div&gt;注册后使用&lt;/div&gt;&lt;div&gt;registerTransform&lt;/div&gt;" style="whiteSpace=wrap;html=1;fontFamily=Verdana;rounded=1;shadow=1;labelBackgroundColor=none;strokeWidth=1;" vertex="1" parent="1">
          <mxGeometry x="2090" y="680" width="120" height="60" as="geometry" />
        </mxCell>
        <mxCell id="4B2M-noWRDSl6KQuVCh--36" value="" style="rounded=0;orthogonalLoop=1;jettySize=auto;html=1;endArrow=none;endFill=0;exitX=0.5;exitY=1;exitDx=0;exitDy=0;" edge="1" parent="1" source="4B2M-noWRDSl6KQuVCh--34" target="4B2M-noWRDSl6KQuVCh--35">
          <mxGeometry relative="1" as="geometry" />
        </mxCell>
        <mxCell id="4B2M-noWRDSl6KQuVCh--40" style="rounded=0;orthogonalLoop=1;jettySize=auto;html=1;exitX=0.5;exitY=1;exitDx=0;exitDy=0;endArrow=none;endFill=0;" edge="1" parent="1" source="4B2M-noWRDSl6KQuVCh--34" target="4B2M-noWRDSl6KQuVCh--39">
          <mxGeometry relative="1" as="geometry" />
        </mxCell>
        <mxCell id="4B2M-noWRDSl6KQuVCh--41" style="rounded=0;orthogonalLoop=1;jettySize=auto;html=1;exitX=0.5;exitY=1;exitDx=0;exitDy=0;endArrow=none;endFill=0;entryX=0.5;entryY=0;entryDx=0;entryDy=0;" edge="1" parent="1" source="4B2M-noWRDSl6KQuVCh--34" target="4B2M-noWRDSl6KQuVCh--37">
          <mxGeometry relative="1" as="geometry" />
        </mxCell>
        <mxCell id="4B2M-noWRDSl6KQuVCh--42" style="rounded=0;orthogonalLoop=1;jettySize=auto;html=1;exitX=0.5;exitY=1;exitDx=0;exitDy=0;endArrow=none;endFill=0;entryX=0.5;entryY=0;entryDx=0;entryDy=0;" edge="1" parent="1" source="4B2M-noWRDSl6KQuVCh--34" target="4B2M-noWRDSl6KQuVCh--38">
          <mxGeometry relative="1" as="geometry" />
        </mxCell>
        <mxCell id="4B2M-noWRDSl6KQuVCh--34" value="坐标轴X，Y轴&lt;div&gt;option.xAxis&lt;/div&gt;&lt;div&gt;option.yAxis&lt;/div&gt;&lt;div&gt;多轴用数组或offeset&lt;/div&gt;" style="whiteSpace=wrap;html=1;rounded=1;shadow=1;labelBackgroundColor=none;strokeWidth=1;fontFamily=Verdana;fontSize=12;align=center;" vertex="1" parent="1">
          <mxGeometry x="1940" y="180" width="120" height="60" as="geometry" />
        </mxCell>
        <mxCell id="4B2M-noWRDSl6KQuVCh--35" value="轴线&lt;div&gt;axisLine&lt;/div&gt;" style="whiteSpace=wrap;html=1;fontFamily=Verdana;rounded=1;shadow=1;labelBackgroundColor=none;strokeWidth=1;" vertex="1" parent="1">
          <mxGeometry x="1810" y="300" width="120" height="60" as="geometry" />
        </mxCell>
        <mxCell id="4B2M-noWRDSl6KQuVCh--37" value="刻度&lt;div&gt;axisTick&lt;/div&gt;" style="whiteSpace=wrap;html=1;fontFamily=Verdana;rounded=1;shadow=1;labelBackgroundColor=none;strokeWidth=1;" vertex="1" parent="1">
          <mxGeometry x="2070" y="300" width="120" height="60" as="geometry" />
        </mxCell>
        <mxCell id="4B2M-noWRDSl6KQuVCh--38" value="刻度标题&lt;div&gt;axisLabel&lt;/div&gt;" style="whiteSpace=wrap;html=1;fontFamily=Verdana;rounded=1;shadow=1;labelBackgroundColor=none;strokeWidth=1;" vertex="1" parent="1">
          <mxGeometry x="2200" y="300" width="120" height="60" as="geometry" />
        </mxCell>
        <mxCell id="4B2M-noWRDSl6KQuVCh--39" value="轴标题&lt;div&gt;name&lt;/div&gt;" style="whiteSpace=wrap;html=1;fontFamily=Verdana;rounded=1;shadow=1;labelBackgroundColor=none;strokeWidth=1;" vertex="1" parent="1">
          <mxGeometry x="1940" y="300" width="120" height="60" as="geometry" />
        </mxCell>
        <mxCell id="4B2M-noWRDSl6KQuVCh--46" value="" style="rounded=0;orthogonalLoop=1;jettySize=auto;html=1;endArrow=none;endFill=0;exitX=0.5;exitY=1;exitDx=0;exitDy=0;" edge="1" parent="1" source="4B2M-noWRDSl6KQuVCh--44" target="4B2M-noWRDSl6KQuVCh--45">
          <mxGeometry relative="1" as="geometry" />
        </mxCell>
        <mxCell id="4B2M-noWRDSl6KQuVCh--48" style="rounded=0;orthogonalLoop=1;jettySize=auto;html=1;exitX=0.5;exitY=1;exitDx=0;exitDy=0;entryX=0.5;entryY=0;entryDx=0;entryDy=0;endArrow=none;endFill=0;" edge="1" parent="1" source="4B2M-noWRDSl6KQuVCh--44" target="4B2M-noWRDSl6KQuVCh--47">
          <mxGeometry relative="1" as="geometry" />
        </mxCell>
        <mxCell id="4B2M-noWRDSl6KQuVCh--44" value="视觉映射&lt;div&gt;根据范围映射&lt;/div&gt;" style="whiteSpace=wrap;html=1;rounded=1;shadow=1;labelBackgroundColor=none;strokeWidth=1;fontFamily=Verdana;fontSize=12;align=center;" vertex="1" parent="1">
          <mxGeometry x="2430" y="180" width="120" height="60" as="geometry" />
        </mxCell>
        <mxCell id="4B2M-noWRDSl6KQuVCh--45" value="连续型" style="whiteSpace=wrap;html=1;fontFamily=Verdana;rounded=1;shadow=1;labelBackgroundColor=none;strokeWidth=1;" vertex="1" parent="1">
          <mxGeometry x="2360" y="300" width="120" height="60" as="geometry" />
        </mxCell>
        <mxCell id="4B2M-noWRDSl6KQuVCh--47" value="分段型" style="whiteSpace=wrap;html=1;fontFamily=Verdana;rounded=1;shadow=1;labelBackgroundColor=none;strokeWidth=1;" vertex="1" parent="1">
          <mxGeometry x="2510" y="300" width="120" height="60" as="geometry" />
        </mxCell>
        <mxCell id="4B2M-noWRDSl6KQuVCh--49" value="" style="rounded=0;orthogonalLoop=1;jettySize=auto;html=1;endArrow=none;endFill=0;exitX=0.5;exitY=1;exitDx=0;exitDy=0;" edge="1" parent="1" source="4B2M-noWRDSl6KQuVCh--51" target="4B2M-noWRDSl6KQuVCh--52">
          <mxGeometry relative="1" as="geometry" />
        </mxCell>
        <mxCell id="4B2M-noWRDSl6KQuVCh--51" value="图例" style="whiteSpace=wrap;html=1;rounded=1;shadow=1;labelBackgroundColor=none;strokeWidth=1;fontFamily=Verdana;fontSize=12;align=center;" vertex="1" parent="1">
          <mxGeometry x="2730" y="180" width="120" height="60" as="geometry" />
        </mxCell>
        <mxCell id="4B2M-noWRDSl6KQuVCh--52" value="文字，icon形状，颜色，位置，显隐交互等" style="whiteSpace=wrap;html=1;fontFamily=Verdana;rounded=1;shadow=1;labelBackgroundColor=none;strokeWidth=1;" vertex="1" parent="1">
          <mxGeometry x="2730" y="300" width="120" height="60" as="geometry" />
        </mxCell>
      </root>
    </mxGraphModel>
  </diagram>
</mxfile>
